# xmcd
#
# Track frame offsets:
# 183
# 16948
# 35520
# 52395
# 71320
# 89115
# 108903
# 127370
# 150520
# 167820
# 186163
# 202330
#
# Disc length: 2907 seconds
#
#
# Revision: 2
# Processed by: cddbd v1.5.1PL2 Copyright (c) Steve Scherf et al.
# Submitted via: FreeRIP 2.945 
#
DISCID=b20b590c
DTITLE=Pierre Bachelet - Les lolas
DYEAR=1900
DGENRE=
TTITLE0=Laissez chanter le français
TTITLE1=Au revoir professeur
TTITLE2=A contre vent
TTITLE3=La marée
TTITLE4=Il se sont retrouvés
TTITLE5=Et je me sens géant
TTITLE6=Les lolas
TTITLE7=J'ai toujours envie de toi
TTITLE8=Je t'aime etc...
TTITLE9=Elle est ma guerre elle est ma femme
TTITLE10=Ca devient trop
TTITLE11=Gardiens de planète
EXTD=
EXTT0=
EXTT1=
EXTT2=
EXTT3=
EXTT4=
EXTT5=
EXTT6=
EXTT7=
EXTT8=
EXTT9=
EXTT10=
EXTT11=
PLAYORDER=
